#!OML:ASF E:\Steps\Project 1\Capture day 1\Session 2\Subject.ASF
:FULLY-SPECIFIED
:DEGREES
273
root 11.6001 12.3758 11.7945 -145.018 9.8011 546.532
lowerback -0.898367 -0.0282343 -8.29367
upperback 2.08071 0.319575 -1.72573
thorax 2.64108 0.0628719 2.87025
lowerneck 0.313155 -0.948587 -3.88167
upperneck 9.02459 -1.36969 6.99855
head 2.95789 -0.45796 2.97427
rclavicle -1.11319e-014 -6.20208e-014
rhumerus -44.8447 5.63802 -87.5548
rradius 32.8997
rwrist 4.02704
rhand 7.08127 -46.1186
rfingers 7.12502
rthumb 32.3531 -73.2531
lclavicle -1.11319e-014 -6.20208e-014
lhumerus -13.9149 -7.60577 83.9459
lradius 44.3022
lwrist 9.76513
lhand -28.2076 -28.201
lfingers 7.12502
lthumb -1.58644 1.77286
rfemur -86.7491 12.16 16.6457
rtibia 85.8791
rfoot -41.9222 -16.8039
rtoes -25.1959
lfemur -86.0689 -0.463501 -19.8672
ltibia 95.0567
lfoot -41.8546 18.4091
ltoes -15.1964
274
root 11.5626 12.4675 11.8166 -144.923 10.2803 546.331
lowerback -1.16938 -0.0815548 -8.19035
upperback 1.88968 0.24716 -1.63817
thorax 2.60144 0.0287066 2.902
lowerneck 0.232032 -0.96914 -3.84511
upperneck 9.01876 -1.40034 7.00586
head 2.97251 -0.471717 2.9695
rclavicle 7.95139e-016 1.59028e-014
rhumerus -44.3947 5.21286 -87.5994
rradius 33.2145
rwrist 3.66246
rhand 4.84549 -46.0447
rfingers 7.12502
rthumb 30.2226 -73.5914
lclavicle 7.95139e-016 1.59028e-014
lhumerus -14.2555 -8.32644 83.4799
lradius 43.6378
lwrist 10.3676
lhand -27.9602 -27.8689
lfingers 7.12502
lthumb -1.34746 2.10664
rfemur -86.5235 12.0897 16.1133
rtibia 84.8581
rfoot -41.3247 -16.8441
rtoes -25.9977
lfemur -85.5553 -0.579746 -19.8244
ltibia 94.113
lfoot -41.1796 18.1802
ltoes -15.5623
275
root 11.5262 12.5636 11.8387 -144.835 10.8829 546.139
lowerback -1.36423 -0.071527 -8.15471
upperback 1.66638 0.254321 -1.58646
thorax 2.47695 0.0382904 2.93655
lowerneck 0.0287962 -0.985696 -3.86621
upperneck 9.0379 -1.42653 7.02244
head 3.01939 -0.483808 2.98002
rclavicle 1.35174e-014 -2.06736e-014
rhumerus -43.9369 4.44896 -87.4909
rradius 33.4642
rwrist 3.10712
rhand 2.84357 -45.4239
rfingers 7.12502
rthumb 28.3111 -73.3041
lclavicle 1.35174e-014 -2.06736e-014
lhumerus -14.5417 -8.9699 83.1069
lradius 43.0073
lwrist 10.7095
lhand -27.9965 -27.4465
lfingers 7.12502
lthumb -1.38257 2.52874
rfemur -86.2927 12.0646 15.5881
rtibia 83.7533
rfoot -40.4934 -17.1601
rtoes -27.4293
lfemur -85.0161 -0.613206 -19.7779
ltibia 92.9858
lfoot -39.7163 19.2501
ltoes -21.4413
276
root 11.4896 12.668 11.8606 -144.855 11.3751 545.887
lowerback -1.69759 -0.158716 -7.94868
upperback 1.67932 0.170743 -1.66687
thorax 2.68751 -0.00596044 2.73626
lowerneck 0.0755604 -0.976513 -3.89753
upperneck 9.00806 -1.416 7.04378
head 3.00067 -0.480672 2.99279
rclavicle 3.02153e-014 1.24042e-013
rhumerus -42.9473 3.51078 -87.4763
rradius 33.3069
rwrist 2.56211
rhand 1.45906 -45.1289
rfingers 7.12502
rthumb 26.9871 -73.2213
lclavicle 3.02153e-014 1.24042e-013
lhumerus -14.4407 -9.52046 82.4707
lradius 42.4262
lwrist 10.9248
lhand -27.9627 -27.1062
lfingers 7.12502
lthumb -1.34993 2.86923
rfemur -85.8722 11.9778 15.0349
rtibia 82.4846
rfoot -39.6003 -17.5508
rtoes -28.7681
lfemur -84.2593 -0.826285 -19.5539
ltibia 91.7703
lfoot -38.7485 18.8078
ltoes -23.3007
277
root 11.4533 12.7796 11.8835 -144.813 11.7939 545.67
lowerback -2.07222 -0.236706 -7.82171
upperback 1.67931 0.0956954 -1.63757
thorax 2.90629 -0.0505293 2.69299
lowerneck 0.00065463 -0.948505 -3.89521
upperneck 8.97431 -1.37953 7.02634
head 3.0004 -0.464338 2.98693
rclavicle -4.77083e-015 3.18055e-014
rhumerus -41.9821 2.62082 -87.3085
rradius 33.1822
rwrist 1.64855
rhand 0.401719 -44.7553
rfingers 7.12502
rthumb 25.9751 -73.0002
lclavicle -4.77083e-015 3.18055e-014
lhumerus -14.4081 -10.3293 81.9446
lradius 42.0539
lwrist 11.32
lhand -27.9359 -26.9958
lfingers 7.12502
lthumb -1.32396 2.97981
rfemur -85.3903 11.9369 14.4456
rtibia 81.142
rfoot -38.954 -17.5999
rtoes -29.3079
lfemur -83.548 -1.0438 -19.1828
ltibia 90.6896
lfoot -38.3433 17.1008
ltoes -21.3986
278
root 11.4198 12.8951 11.9082 -144.662 12.1668 545.495
lowerback -2.40016 -0.283582 -7.66988
upperback 1.46025 0.0370889 -1.5906
thorax 2.86799 -0.0743565 2.65478
lowerneck 0.124953 -0.930083 -3.91759
upperneck 8.94196 -1.3538 7.03521
head 2.96498 -0.453554 2.99358
rclavicle -2.94201e-014 -4.29375e-014
rhumerus -41.4968 1.69666 -87.1126
rradius 33.2885
rwrist 0.520648
rhand -0.196968 -44.49
rfingers 7.12502
rthumb 25.4017 -72.8177
lclavicle -2.94201e-014 -4.29375e-014
lhumerus -14.7991 -11.1934 81.5666
lradius 41.7652
lwrist 11.4068
lhand -27.9866 -27.0381
lfingers 7.12502
lthumb -1.37294 2.93722
rfemur -84.9715 11.9702 13.8337
rtibia 79.7757
rfoot -38.4186 -17.2733
rtoes -29.1296
lfemur -82.9563 -1.21705 -18.7353
ltibia 89.4932
lfoot -37.0529 16.9433
ltoes -24.7981
279
root 11.3895 13.0138 11.9313 -144.612 12.4039 545.262
lowerback -2.35425 -0.311722 -7.41607
upperback 1.04744 -0.0410089 -1.64207
thorax 2.41862 -0.0854997 2.45785
lowerneck 0.286369 -0.950364 -3.94528
upperneck 8.95308 -1.38061 7.07934
head 2.94169 -0.466126 3.0129
rclavicle -2.94201e-014 2.70347e-014
rhumerus -41.49 0.447753 -86.9369
rradius 33.5489
rwrist -0.0928113
rhand -0.0254075 -44.769
rfingers 7.12502
rthumb 25.566 -73.0733
lclavicle -2.94201e-014 2.70347e-014
lhumerus -15.4901 -12.1997 81.2587
lradius 41.5046
lwrist 11.3423
lhand -28.11 -26.6796
lfingers 7.12502
lthumb -1.49218 3.29491
rfemur -84.4377 11.9975 13.2112
rtibia 78.3488
rfoot -37.8211 -17.4983
rtoes -29.0776
lfemur -82.1914 -1.54348 -18.2327
ltibia 88.1032
lfoot -35.0055 17.9079
ltoes -33.0207
280
root 11.3604 13.1342 11.9505 -144.649 12.5142 544.974
lowerback -2.56132 -0.369962 -7.16072
upperback 0.939123 -0.111859 -1.7137
thorax 2.42798 -0.113832 2.23837
lowerneck 0.389758 -0.966819 -3.9535
upperneck 8.94114 -1.40303 7.10817
head 2.92049 -0.477176 3.02323
rclavicle 7.15625e-015 0
rhumerus -41.0086 -0.74398 -86.8281
rradius 33.6871
rwrist -0.567231
rhand 0.62134 -45.7725
rfingers 7.12502
rthumb 26.1854 -73.9864
lclavicle 7.15625e-015 0
lhumerus -15.6151 -13.2426 80.8587
lradius 41.2894
lwrist 11.53
lhand -27.8735 -26.1283
lfingers 7.12502
lthumb -1.26374 3.84768
rfemur -83.7174 11.8743 12.6926
rtibia 76.8375
rfoot -37.0775 -18.3469
rtoes -29.6895
lfemur -81.2534 -2.06966 -17.6458
ltibia 86.5603
lfoot -33.2402 18.0935
ltoes -39.1383
281
root 11.3352 13.2556 11.9668 -144.724 12.6598 544.645
lowerback -2.85856 -0.424757 -7.11831
upperback 0.923877 -0.159498 -1.71964
thorax 2.58384 -0.14127 2.20539
lowerneck 0.270132 -0.969982 -3.98659
upperneck 8.92329 -1.40956 7.12392
head 2.93797 -0.481287 3.03511
rclavicle -2.62396e-014 0
rhumerus -40.3314 -1.70504 -86.6741
rradius 33.6378
rwrist -1.42277
rhand 0.845303 -45.7932
rfingers 7.12502
rthumb 26.3998 -73.9751
lclavicle -2.62396e-014 0
lhumerus -15.5561 -14.0897 80.5664
lradius 40.9701
lwrist 11.514
lhand -27.3298 -25.9535
lfingers 7.12502
lthumb -0.738598 4.02501
rfemur -82.8691 11.7319 12.1869
rtibia 75.2525
rfoot -36.2322 -19.1376
rtoes -30.6466
lfemur -80.265 -2.63126 -17.0659
ltibia 84.9006
lfoot -32.3598 16.8404
ltoes -40.6671
